<svg width="18" height="22" viewBox="0 0 18 22" fill="none" xmlns="http://www.w3.org/2000/svg">
<path d="M16.8801 9.24798C16.8801 15.378 9.00012 20.63 9.00012 20.63C9.00012 20.63 1.12012 15.368 1.12012 9.24798C1.12012 7.15808 1.95033 5.15377 3.42812 3.67598C4.9059 2.19819 6.91021 1.36798 9.00012 1.36798C11.09 1.36798 13.0943 2.19819 14.5721 3.67598C16.0499 5.15377 16.8801 7.15808 16.8801 9.24798V9.24798Z" stroke="white" stroke-linecap="round" stroke-linejoin="round"/>
<path d="M11.6282 9.24801C11.6282 9.7673 11.4743 10.2749 11.1858 10.7067C10.8973 11.1385 10.4873 11.4751 10.0076 11.6739C9.52789 11.8727 8.99999 11.9249 8.49065 11.8237C7.98131 11.7225 7.5134 11.4726 7.14607 11.1056C6.77873 10.7385 6.52847 10.2708 6.42692 9.76154C6.32537 9.25228 6.37709 8.72434 6.57554 8.24447C6.77399 7.76459 7.11026 7.35433 7.54184 7.06554C7.97342 6.77675 8.48093 6.62241 9.00022 6.62201C9.34524 6.62175 9.68693 6.68948 10.0058 6.82133C10.3246 6.95318 10.6143 7.14657 10.8584 7.39044C11.1024 7.63431 11.296 7.92389 11.4281 8.24262C11.5602 8.56135 11.6282 8.90299 11.6282 9.24801V9.24801Z" stroke="white" stroke-linecap="round" stroke-linejoin="round"/>
</svg>
